<?xml version="1.0" standalone="no"?><!DOCTYPE svg PUBLIC "-//W3C//DTD SVG 1.1//EN" "http://www.w3.org/Graphics/SVG/1.1/DTD/svg11.dtd"><svg t="1621927929330" class="icon" viewBox="0 0 1024 1024" version="1.1" xmlns="http://www.w3.org/2000/svg" p-id="2363" xmlns:xlink="http://www.w3.org/1999/xlink" width="16" height="16"><defs><style type="text/css"></style></defs><path d="M976.213333 416.426667c0-20.48-13.653333-34.133333-34.133333-40.96-40.96-6.826667-68.266667-34.133333-95.573333-68.266667-20.48-34.133333-27.306667-75.093333-13.653334-116.053333 6.826667-13.653333 0-34.133333-13.653333-47.786667-40.96-40.96-95.573333-75.093333-150.186667-95.573333-20.48-6.826667-34.133333 0-54.613333 13.653333-20.48 34.133333-61.44 47.786667-102.4 47.786667S436.906667 88.746667 402.773333 61.44C382.293333 40.96 368.64 47.786667 354.986667 47.786667c-61.44 27.306667-109.226667 54.613333-157.013334 95.573333-13.653333 6.826667-20.48 27.306667-13.653333 47.786667 13.653333 40.96 6.826667 81.92-13.653333 122.88-20.48 27.306667-54.613333 54.613333-95.573334 68.266666H68.266667c-6.826667 6.826667-20.48 20.48-27.306667 34.133334-6.826667 34.133333-6.826667 68.266667-6.826667 95.573333 0 27.306667 0 61.44 6.826667 88.746667 0 20.48 13.653333 34.133333 34.133333 40.96 40.96 6.826667 68.266667 34.133333 95.573334 68.266666 20.48 34.133333 27.306667 75.093333 13.653333 116.053334-6.826667 13.653333 0 34.133333 13.653333 47.786666 40.96 40.96 95.573333 75.093333 157.013334 95.573334h13.653333c13.653333 0 27.306667-6.826667 34.133333-13.653334 27.306667-27.306667 61.44-47.786667 109.226667-47.786666 40.96 0 75.093333 20.48 109.226667 47.786666 6.826667 6.826667 20.48 13.653333 34.133333 13.653334h13.653333c61.44-27.306667 109.226667-54.613333 150.186667-88.746667 13.653333-6.826667 20.48-34.133333 13.653333-47.786667-13.653333-40.96-6.826667-81.92 13.653334-122.88 20.48-34.133333 54.613333-54.613333 95.573333-68.266666h6.826667c13.653333-6.826667 20.48-20.48 27.306666-34.133334 6.826667-34.133333 6.826667-61.44 6.826667-95.573333 6.826667-34.133333 0-61.44-6.826667-95.573333z m-464.213333 300.373333c-116.053333 0-204.8-88.746667-204.8-204.8s88.746667-204.8 204.8-204.8 204.8 88.746667 204.8 204.8c0 109.226667-95.573333 204.8-204.8 204.8z" p-id="2364" fill="#efb336"></path></svg>