<?xml version="1.0" standalone="no"?><!DOCTYPE svg PUBLIC "-//W3C//DTD SVG 1.1//EN" "http://www.w3.org/Graphics/SVG/1.1/DTD/svg11.dtd"><svg t="1622010194122" class="icon" viewBox="0 0 1024 1024" version="1.1" xmlns="http://www.w3.org/2000/svg" p-id="4303" xmlns:xlink="http://www.w3.org/1999/xlink" width="16" height="16"><defs><style type="text/css"></style></defs><path d="M886.730649 1024H130.632432c-62.284931 0-112.317088-50.54269-112.317089-112.317088V113.721052c0-62.284931 50.54269-112.317088 112.317089-112.317088h461.010594c20.931821 0 37.268852 16.847563 37.268852 37.268852s-16.847563 37.268852-37.268852 37.268852H168.411816C126.548174 75.941668 93.36358 109.636794 93.36358 150.989904v722.913623c0 41.35311 33.695127 75.048236 75.048236 75.048237h681.049981c41.35311 0 75.048236-33.695127 75.048237-75.048237V413.403465c0-20.931821 16.847563-37.268852 37.268852-37.268852 20.931821 0 37.268852 16.847563 37.268852 37.268852V911.682912c0 61.774399-50.032158 112.317088-112.317089 112.317088zM317.487224 741.16515c-14.805434 14.805434-38.289916 14.805434-53.095351 0-14.805434-14.805434-14.805434-38.289916 0-53.095351L937.783871 11.104076c14.805434-14.805434 38.289916-14.805434 53.095351 0 14.805434 14.805434 14.805434 38.289916 0 53.095351L317.487224 741.16515z" p-id="4304" fill="#efb336"></path></svg>