<?xml version="1.0" standalone="no"?><!DOCTYPE svg PUBLIC "-//W3C//DTD SVG 1.1//EN" "http://www.w3.org/Graphics/SVG/1.1/DTD/svg11.dtd"><svg t="1621577190411" class="icon" viewBox="0 0 1024 1024" version="1.1" xmlns="http://www.w3.org/2000/svg" p-id="69669" xmlns:xlink="http://www.w3.org/1999/xlink" width="16" height="16"><defs><style type="text/css"></style></defs><path d="M522.147072 21.6064a185.344 185.344 0 0 0-185.1392 179.3536H103.177472a47.2576 47.2576 0 0 0 0 94.464h52.1216v528.384c0 99.2256 67.2256 180.3264 150.3744 180.3264h423.5264c82.944 0 150.3744-80.64 150.3744-180.2752V295.7312h47.2576a47.2576 47.2576 0 0 0 0-94.464H706.979072A184.832 184.832 0 0 0 522.147072 21.6064zM425.481472 200.96A96.768 96.768 0 0 1 522.300672 110.08c51.6608 0 93.3888 39.8336 96.3584 90.88H425.481472zM305.519872 915.8144c-29.4912 0-61.952-37.8368-61.952-91.9552V295.7312h547.328V824.32c0 54.016-32.4096 91.9552-61.8496 91.9552H305.519872v-0.512z" fill="#aa78c7" p-id="69670"></path><path d="M368.956672 802.304c21.5552 0 39.3728-21.6064 39.3728-48.6912V476.0064c0-27.0848-17.664-48.64-39.424-48.64-21.504 0-39.3216 21.5552-39.3216 48.64v277.6064c0 26.9312 17.3056 48.64 39.3728 48.64z m142.4896 0c21.5552 0 39.3728-21.6064 39.3728-48.6912V476.0064c0-27.0848-17.664-48.64-39.3728-48.64-21.5552 0-39.3728 21.5552-39.3728 48.64v277.6064c0 26.9312 17.8176 48.64 39.3728 48.64z m149.9136 0c21.504 0 39.3216-21.6064 39.3216-48.6912V476.0064c0-27.0848-17.6128-48.64-39.3216-48.64-21.6064 0-39.424 21.5552-39.424 48.64v277.6064c0 26.9312 17.2032 48.64 39.424 48.64z" fill="#aa78c7" p-id="69671"></path></svg>