<?xml version="1.0" standalone="no"?><!DOCTYPE svg PUBLIC "-//W3C//DTD SVG 1.1//EN" "http://www.w3.org/Graphics/SVG/1.1/DTD/svg11.dtd"><svg t="1622010101424" class="icon" viewBox="0 0 1024 1024" version="1.1" xmlns="http://www.w3.org/2000/svg" p-id="3441" xmlns:xlink="http://www.w3.org/1999/xlink" width="16" height="16"><defs><style type="text/css"></style></defs><path d="M768 250.311111l-11.377778 5.688889c-68.266667 59.733333-156.444444 91.022222-244.622222 91.022222-91.022222 0-176.355556-31.288889-244.622222-91.022222L256 250.311111C119.466667 335.644444 25.6 483.555556 25.6 625.777778c0 219.022222 219.022222 398.222222 486.4 398.222222 267.377778 0 486.4-179.2 486.4-398.222222 0-142.222222-93.866667-290.133333-230.4-375.466667z m-113.777778 438.044445c17.066667 0 28.444444 14.222222 28.444445 28.444444 0 17.066667-14.222222 28.444444-28.444445 28.444444h-113.777778v62.577778c0 17.066667-14.222222 28.444444-28.444444 28.444445-17.066667 0-28.444444-14.222222-28.444444-28.444445v-62.577778h-113.777778c-17.066667 0-28.444444-14.222222-28.444445-28.444444 0-17.066667 14.222222-28.444444 28.444445-28.444444h113.777778v-68.266667h-113.777778c-17.066667 0-28.444444-14.222222-28.444445-28.444445 0-17.066667 14.222222-28.444444 28.444445-28.444444h68.266666l-48.355555-45.511111c-11.377778-11.377778-11.377778-31.288889 0-42.666667 11.377778-11.377778 31.288889-11.377778 42.666667 0l82.488888 76.8 79.644445-76.8c11.377778-11.377778 31.288889-11.377778 42.666667 0 11.377778 11.377778 11.377778 31.288889 0 42.666667l-48.355556 45.511111H654.222222c17.066667 0 28.444444 14.222222 28.444445 28.444444 0 17.066667-14.222222 28.444444-28.444445 28.444445h-113.777778v68.266667h113.777778z" fill="#efb336" p-id="3442"></path><path d="M733.866667 230.4s2.844444 0 0 0C674.133333 281.6 597.333333 312.888889 512 312.888889s-162.133333-31.288889-224.711111-82.488889c-51.2-42.666667-71.111111-85.333333-42.666667-125.155556 22.755556-34.133333 110.933333-25.6 153.6-19.911111 14.222222 2.844444 25.6-5.688889 31.288889-19.911111C446.577778 25.6 477.866667 0 512 0s65.422222 25.6 82.488889 65.422222c5.688889 14.222222 17.066667 22.755556 31.288889 19.911111 42.666667-5.688889 130.844444-14.222222 153.6 19.911111 25.6 39.822222 5.688889 82.488889-45.511111 125.155556z" fill="#efb336" p-id="3443"></path><path d="M290.133333 230.4c-51.2-42.666667-71.111111-85.333333-42.666666-125.155556 19.911111-34.133333 108.088889-25.6 150.755555-19.911111 14.222222 2.844444 25.6-5.688889 31.288889-19.911111C446.577778 25.6 477.866667 0 512 0s65.422222 25.6 82.488889 65.422222c5.688889 14.222222 17.066667 22.755556 31.288889 19.911111 42.666667-5.688889 130.844444-14.222222 153.6 19.911111 25.6 39.822222 5.688889 82.488889-42.666667 125.155556" fill="#efb336" p-id="3444"></path></svg>