<?xml version="1.0" standalone="no"?><!DOCTYPE svg PUBLIC "-//W3C//DTD SVG 1.1//EN" "http://www.w3.org/Graphics/SVG/1.1/DTD/svg11.dtd"><svg t="1621928114228" class="icon" viewBox="0 0 1024 1024" version="1.1" xmlns="http://www.w3.org/2000/svg" p-id="3275" xmlns:xlink="http://www.w3.org/1999/xlink" width="16" height="16"><defs><style type="text/css"></style></defs><path d="M442.61984 502.737032c-19.571754-0.005117-35.594683 16.021905-35.58445 35.58445l-0.019443 121.301693c0.019443 19.571754 16.021905 35.574217 35.603893 35.599799l247.035326-0.01535c19.581987 0.01535 35.594683 16.027022 35.594683 35.594683l-0.010233 77.92579c0.010233 19.572778 11.330046 24.25031 25.167193 10.41828l198.485587-198.490703c13.837146-13.837146 13.837146-36.47268 0-50.312896L750.406808 371.870496c-13.837146-13.84124-25.167193-9.144264-25.167193 10.42749l-0.010233 84.85562c0 19.571754-16.002462 35.58445-35.58445 35.594683L442.61984 502.737032z" p-id="3276" fill="#efb336"></path><path d="M627.019617 343.655897c8.722662 8.722662 14.137998 20.774139 14.137998 34.06484-0.010233 6.964622-5.65479 12.609179-12.604062 12.618389-6.978948-0.00921-12.623505-5.653767-12.623505-12.623505 0.010233-12.67774-10.286274-22.980387-22.971178-22.985504l-247.065002 0.005117c-12.834306 0.014326-24.896017-5.018294-34.040281-14.148231-9.104355-9.119705-14.157441-21.200858-14.147208-34.045397l0.010233-77.920674c0-1.825578-0.140193-3.269463-0.321318-4.381797-0.912789 0.64673-2.026146 1.584078-3.339048 2.88777L95.591125 425.602258c-8.952906 8.953929-8.963139 23.537066 0 32.506345l198.476377 198.445678c1.302669 1.293459 2.426259 2.225691 3.339048 2.882654 0.170892-1.108241 0.300852-2.561335 0.320295-4.376681l-0.560772-84.002183c-0.060375-6.963599 5.563716-12.658298 12.512988-12.68388 6.968715-0.059352 12.663414 5.555529 12.69309 12.524245l0.561795 84.067674c0 20.183691-9.514701 27.136034-15.189957 29.473265-5.664 2.356674-17.294898 4.160763-31.493272-10.06217L77.774341 475.93562c-18.800181-18.799158-18.800181-49.384757-0.010233-68.160379l198.466144-198.481494c14.227026-14.227026 25.848715-12.407588 31.533181-10.066263 5.65479 2.351558 15.169491 9.298783 15.159258 29.393447l0 77.920674c0 6.111185 2.396583 11.867282 6.748704 16.21838 4.371564 4.371564 10.147104 6.773264 16.242939 6.752798l247.054769 0.01535C606.234221 329.512782 618.285698 334.928119 627.019617 343.655897z" p-id="3277" fill="#efb336"></path></svg>