<?xml version="1.0" standalone="no"?><!DOCTYPE svg PUBLIC "-//W3C//DTD SVG 1.1//EN" "http://www.w3.org/Graphics/SVG/1.1/DTD/svg11.dtd"><svg t="1621579243528" class="icon" viewBox="0 0 6144 1024" version="1.1" xmlns="http://www.w3.org/2000/svg" p-id="72099" xmlns:xlink="http://www.w3.org/1999/xlink" width="96" height="16"><defs><style type="text/css"></style></defs><path d="M279.272727 465.454545h5585.454546c158.254545 0 279.272727 121.018182 279.272727 279.272728s-121.018182 279.272727-279.272727 279.272727H279.272727c-158.254545 0-279.272727-121.018182-279.272727-279.272727s121.018182-279.272727 279.272727-279.272728z" fill="#2F3133" p-id="72100"></path><path d="M4328.727273 1024l260.654545-456.145455c18.618182 27.927273 37.236364 55.854545 46.545455 93.09091l-195.490909 344.436363c-9.309091 0-27.927273 9.309091-37.236364 9.309091l-74.472727 9.309091z m-186.181818 0l316.50909-549.236364c27.927273 9.309091 55.854545 18.618182 74.472728 37.236364l-288.581818 502.690909h-102.4z m-186.181819 0L4282.181818 465.454545h111.709091l-325.818182 558.545455h-111.709091z m-186.181818 0L4096 465.454545h111.709091l-325.818182 558.545455h-111.709091z m-186.181818 0L3909.818182 465.454545h111.709091l-325.818182 558.545455h-111.709091z m-186.181818 0L3723.636364 465.454545h111.709091l-325.818182 558.545455h-111.709091z m-186.181818 0L3537.454545 465.454545h111.709091l-325.818181 558.545455h-111.709091z m-186.181819 0L3351.272727 465.454545h111.709091l-325.818182 558.545455h-111.709091z m-186.181818 0L3165.090909 465.454545h111.709091l-325.818182 558.545455h-111.709091z m-186.181818 0L2978.909091 465.454545h111.709091l-325.818182 558.545455h-111.709091z m-186.181818 0L2792.727273 465.454545h111.709091l-325.818182 558.545455h-111.709091z m-186.181818 0L2606.545455 465.454545h111.70909l-325.818181 558.545455h-111.709091z m-186.181818 0L2420.363636 465.454545h111.709091l-325.818182 558.545455h-111.70909z m-186.181819 0L2234.181818 465.454545h111.709091l-325.818182 558.545455h-111.709091z m-186.181818 0L2048 465.454545h111.709091l-325.818182 558.545455h-111.709091z m-186.181818 0L1861.818182 465.454545h111.709091l-325.818182 558.545455h-111.709091z m-186.181818 0L1675.636364 465.454545h111.709091l-325.818182 558.545455h-111.709091z m-186.181818 0L1489.454545 465.454545h111.709091l-325.818181 558.545455h-111.709091z m-186.181819 0L1303.272727 465.454545h111.709091l-325.818182 558.545455h-111.709091z m-186.181818 0L1117.090909 465.454545h111.709091l-325.818182 558.545455H791.272727z m-186.181818 0L930.909091 465.454545h111.709091l-325.818182 558.545455H605.090909z m-186.181818 0L744.727273 465.454545h111.709091l-325.818182 558.545455H418.909091zM279.272727 1024h-37.236363L558.545455 465.454545h111.70909l-325.818181 558.545455H279.272727z m-158.254545-55.854545l-9.309091-9.309091-9.309091-9.309091 279.272727-484.072728h111.709091L186.181818 1005.381818c-37.236364-9.309091-55.854545-18.618182-65.163636-37.236363zM4654.545455 800.581818c-9.309091 65.163636-46.545455 121.018182-93.09091 158.254546l93.09091-158.254546zM46.545455 893.672727C27.927273 856.436364 9.309091 819.2 0 781.963636l167.563636-297.890909c18.618182-9.309091 27.927273-9.309091 46.545455-18.618182H242.036364L46.545455 893.672727z" fill="#3DABFF" p-id="72101"></path><path d="M4226.327273 288.581818c0 9.309091 0 27.927273-9.309091 37.236364 0 9.309091-9.309091 18.618182-18.618182 27.927273s-18.618182 9.309091-27.927273 18.618181c-9.309091 0-18.618182 9.309091-37.236363 9.309091-9.309091 0-27.927273 0-37.236364-9.309091s-18.618182-9.309091-27.927273-27.927272c-9.309091-9.309091-9.309091-18.618182-18.618182-37.236364 0-18.618182-9.309091-27.927273-9.30909-46.545455s0-46.545455 9.30909-65.163636c9.309091-18.618182 9.309091-37.236364 18.618182-46.545454s18.618182-27.927273 37.236364-27.927273 27.927273-9.309091 46.545454-9.309091 27.927273 0 46.545455 9.309091v27.927273c-9.309091-9.309091-27.927273-9.309091-46.545455-9.309091-9.309091 0-18.618182 0-27.927272 9.309091-9.309091 9.309091-18.618182 9.309091-27.927273 18.618181-9.309091 9.309091-9.309091 18.618182-18.618182 37.236364 0 9.309091-9.309091 27.927273-9.309091 46.545455 9.309091-18.618182 27.927273-27.927273 55.854546-27.927273 9.309091 0 18.618182 0 27.927272 9.309091 9.309091 0 18.618182 9.309091 27.927273 18.618182 9.309091 9.309091 9.309091 18.618182 18.618182 27.927272 27.927273-9.309091 27.927273 0 27.927273 9.309091z m-27.927273 9.309091v-27.927273c0-9.309091-9.309091-9.309091-9.309091-18.618181s-9.309091-9.309091-18.618182-9.309091h-37.236363c-9.309091 0-9.309091 9.309091-18.618182 9.309091 0 9.309091-9.309091 9.309091-9.309091 18.618181v46.545455c0 9.309091 9.309091 18.618182 9.309091 18.618182 0 9.309091 9.309091 9.309091 18.618182 9.309091s9.309091 9.309091 18.618181 9.309091h18.618182s9.309091-9.309091 18.618182-9.309091 9.309091-9.309091 9.309091-18.618182v-27.927273zM4384.581818 176.872727v-18.618182c0-9.309091-9.309091-9.309091-9.309091-18.618181 0 0-9.309091-9.309091-18.618182-9.309091h-37.236363c-9.309091 0-9.309091 0-18.618182 9.309091s-9.309091 9.309091-18.618182 9.309091-9.309091 9.309091-9.309091 9.30909v-27.927272c9.309091-9.309091 18.618182-18.618182 27.927273-18.618182s18.618182-9.309091 37.236364-9.309091h27.927272c9.309091 0 18.618182 9.309091 27.927273 9.309091l18.618182 18.618182c9.309091 9.309091 9.309091 18.618182 9.309091 27.927272V186.181818c0 9.309091-9.309091 18.618182-9.309091 27.927273-9.309091 9.309091-9.309091 18.618182-18.618182 18.618182s-18.618182 9.309091-27.927273 18.618182c-9.309091 9.309091-18.618182 18.618182-27.927272 18.618181-9.309091 9.309091-18.618182 9.309091-18.618182 18.618182-9.309091 9.309091-9.309091 9.309091-9.309091 18.618182v18.618182h130.327273v27.927273H4282.181818v-9.309091-27.927273c0-9.309091 9.309091-18.618182 9.309091-27.927273 9.309091-9.309091 9.309091-18.618182 18.618182-18.618182 9.309091-9.309091 18.618182-18.618182 37.236364-27.927272 9.309091-9.309091 18.618182-9.309091 27.927272-18.618182l18.618182-18.618182c0-9.309091 9.309091-9.309091 9.309091-18.618182s-18.618182 0-18.618182-9.309091zM4514.909091 242.036364c-18.618182 0-27.927273-9.309091-46.545455-18.618182-9.309091-9.309091-18.618182-27.927273-18.618181-46.545455s9.309091-37.236364 18.618181-46.545454 27.927273-18.618182 46.545455-18.618182 37.236364 9.309091 46.545454 18.618182c9.309091 9.309091 18.618182 27.927273 18.618182 46.545454s-9.309091 37.236364-18.618182 46.545455-27.927273 18.618182-46.545454 18.618182z m0-111.709091c-9.309091 0-18.618182 0-27.927273 9.309091-9.309091 9.309091-9.309091 18.618182-9.309091 37.236363s0 27.927273 9.309091 37.236364 18.618182 9.309091 27.927273 9.309091c9.309091 0 18.618182 0 27.927273-9.309091 9.309091-9.309091 9.309091-18.618182 9.309091-37.236364s0-27.927273-9.309091-37.236363-9.309091-9.309091-27.927273-9.309091z m176.872727-18.618182L4524.218182 372.363636h-27.927273l167.563636-260.654545h27.927273zM4673.163636 372.363636c-18.618182 0-27.927273-9.309091-46.545454-18.618181-9.309091-9.309091-18.618182-27.927273-18.618182-46.545455s9.309091-37.236364 18.618182-46.545455c9.309091-9.309091 27.927273-18.618182 46.545454-18.618181s37.236364 9.309091 46.545455 18.618181c9.309091 9.309091 18.618182 27.927273 18.618182 46.545455s-9.309091 37.236364-18.618182 46.545455-27.927273 18.618182-46.545455 18.618181z m0-111.709091c-9.309091 0-18.618182 0-27.927272 9.309091-9.309091 9.309091-9.309091 18.618182-9.309091 37.236364s0 27.927273 9.309091 37.236364 18.618182 9.309091 27.927272 9.309091c9.309091 0 18.618182 0 27.927273-9.309091 9.309091-9.309091 9.309091-18.618182 9.309091-37.236364s0-27.927273-9.309091-37.236364-18.618182-9.309091-27.927273-9.309091z" fill="#3DABFF" p-id="72102"></path></svg>