<?xml version="1.0" standalone="no"?><!DOCTYPE svg PUBLIC "-//W3C//DTD SVG 1.1//EN" "http://www.w3.org/Graphics/SVG/1.1/DTD/svg11.dtd"><svg t="1621491443467" class="icon" viewBox="0 0 1024 1024" version="1.1" xmlns="http://www.w3.org/2000/svg" p-id="2049" xmlns:xlink="http://www.w3.org/1999/xlink" width="200" height="200"><defs><style type="text/css"></style></defs><path d="M424.9 949.5c-11.4 0-21.4-7.8-24.2-18.9L374 823.7 283.5 884c-9.8 6.5-22.7 5.3-31.1-2.8L131.1 763.9c-8.7-8.4-10.1-21.9-3.3-31.9l62.4-91.5-107-26.1c-11.2-2.7-19-12.7-19-24.2V427.6c0-11.5 7.9-21.5 19.1-24.2l114.3-27.6-57.8-85.5c-6.8-10-5.4-23.5 3.3-31.9l120.6-116.6c8.3-8 21-9.3 30.8-3.1l91.6 58.7 27.4-105.9c2.8-11 12.8-18.7 24.1-18.7h162.5c11.5 0 21.5 7.8 24.2 19L651.6 203l91.6-54.7c9.7-5.8 22.1-4.3 30.2 3.6l117.9 115.2c8.3 8.1 9.9 21 3.8 30.9l-58.5 95.2L940.9 418c11.2 2.7 19.2 12.7 19.2 24.2v161.9c0 11.9-8.5 22.2-20.2 24.5l-107.5 20.8 58.2 86c6.7 9.9 5.4 23.1-3 31.5L771 884.2c-8 8-20.4 9.6-30.2 4l-103.3-59.9-20.4 99.3c-2.3 11.5-12.4 19.8-24.1 19.9l-167.9 2h-0.2z m-35.3-191.1c3 0 6.1 0.5 9 1.7 7.6 2.9 13.2 9.3 15.2 17.2l30.5 122.1 128.1-1.5 23.3-113.6c1.6-7.9 6.9-14.5 14.2-17.7 7.3-3.3 15.8-2.8 22.7 1.2l116.6 67.6 88.6-89.1L770 646.1c-4.7-6.9-5.6-15.8-2.4-23.5 3.2-7.7 10.1-13.3 18.3-14.9l124.4-24.1V462l-118.7-28.1c-7.8-1.8-14.2-7.3-17.3-14.7-3.1-7.4-2.4-15.8 1.8-22.6L842.2 289l-90-87.9-104.1 62.1c-6.8 4-15.1 4.7-22.4 1.6-7.3-3-12.7-9.4-14.6-17l-30.7-124.9H456.8l-31.1 120.5c-2 7.7-7.6 14.1-15 17-7.4 2.9-15.8 2.1-22.5-2.2l-104-66.6-91.4 88.3 66.2 97.9c4.6 6.8 5.5 15.3 2.6 23-3 7.6-9.5 13.3-17.4 15.2L114 447.2v123.4l122.9 30c7.9 1.9 14.4 7.7 17.3 15.3 2.9 7.6 1.9 16.2-2.7 23l-70.8 103.9 91.7 88.7 103.2-68.8c4.3-2.9 9.1-4.3 14-4.3z" fill="#D6473B" p-id="2050"></path><path d="M512.1 694.6c-101.1 0-183.4-82.3-183.4-183.4S411 327.8 512.1 327.8c101.1 0 183.4 82.3 183.4 183.4s-82.2 183.4-183.4 183.4z m0-316.9c-73.6 0-133.5 59.9-133.5 133.5s59.9 133.5 133.5 133.5 133.5-59.9 133.5-133.5-59.8-133.5-133.5-133.5z" fill="#D6473B" opacity=".5" p-id="2051"></path></svg>