<?xml version="1.0" standalone="no"?><!DOCTYPE svg PUBLIC "-//W3C//DTD SVG 1.1//EN" "http://www.w3.org/Graphics/SVG/1.1/DTD/svg11.dtd"><svg t="1621999808966" class="icon" viewBox="0 0 1024 1024" version="1.1" xmlns="http://www.w3.org/2000/svg" p-id="2384" xmlns:xlink="http://www.w3.org/1999/xlink" width="16" height="16"><defs><style type="text/css"></style></defs><path d="M511.45 65.66C265.43 65.66 66 265.09 66 511.11c0 246.01 199.43 445.45 445.45 445.45 246.01 0 445.45-199.44 445.45-445.45 0-246.02-199.44-445.45-445.45-445.45z m279.06 626.37c-2.05 23.16-4.1 39.86-6.15 50.11-2.05 10.25-7.22 20.14-15.52 29.67-8.3 9.53-18.96 16.24-31.97 20.13-13.02 3.89-31.1 5.84-54.26 5.84-24.19 0.2-44.22-0.2-60.1-1.23-15.88-1.03-31.37-4.76-46.45-11.22-15.08-6.45-24.97-15.83-29.67-28.13-4.7-12.3-7.04-22.96-7.04-31.97V525.41c-32.38 3.07-67.23 4.72-104.53 4.92-0.82 15.53-1.69 31.06-2.61 46.58-0.92 15.48-3.23 32.64-6.92 51.5s-12.91 40.73-27.67 65.64c-14.76 24.9-33.67 44.78-56.72 59.64-23.06 14.86-40.94 25.16-53.65 30.9-12.71 5.74-21.78 9.48-27.2 11.22-5.44 1.74-11.43 2.87-17.98 3.38-6.56 0.51-12.14-1.43-16.75-5.84-4.61-4.41-7.33-11.22-8.15-20.45-0.82-9.22 7.68-18.44 25.51-27.67l38.43-17.21c38.12-18.25 63.43-40.43 75.93-66.56 12.5-26.13 18.96-44.83 19.37-56.1l5.84-74.09c-24.4 2.05-49.39 2.77-75.01 2.15-12.71-0.2-24.13-1.79-34.28-4.76-10.15-2.97-16.09-9.63-17.83-19.99-1.75-10.35 0.05-18.5 5.38-24.44 2.25-2.66 6.04-5.22 11.37-7.68l21.83-8.3c13.32-5.53 28.33-14.65 45.04-27.36 16.7-12.71 36.32-32.28 58.87-58.72l33.82-39.35h-173.4c-6.97 0-12.76-2.44-17.37-7.32-4.61-4.88-6.72-10.85-6.3-17.91 0.2-6.23 2.61-11.52 7.22-15.88 4.61-4.36 10.09-6.54 16.45-6.54h221.35c-1.64-6.76-2.97-11.88-4-15.37l-6.45-18.75c-2.05-6.97-2.36-12.81-0.92-17.52 1.02-3.69 4-7.89 8.92-12.6s12.09-6.55 21.52-5.53c13.11 1.64 22.34 8.56 27.67 20.75 5.33 12.2 8.09 22.7 8.3 31.51l0.61 17.52h220.12c6.35 0 11.88 2.6 16.6 7.79 4.72 5.19 6.87 11.32 6.46 18.38-0.62 6.23-3.07 11.37-7.38 15.42-4.3 4.05-9.53 6.07-15.68 6.07H492.61c-10.66 14.14-25.51 33.05-44.58 56.72-19.06 23.67-48.68 51.39-88.84 83.16 59.43-0.2 114.15-2.04 164.17-5.53 50.01-3.48 95-8.92 134.96-16.29-10.45-13.73-22.24-27.72-35.35-41.96-13.12-14.24-20.6-22.65-22.44-25.21-1.84-2.56-3.07-6.35-3.69-11.37-0.62-5.02 1.33-9.68 5.84-13.99 4.5-4.31 9.84-6.56 15.98-6.76 4.92 0 9.63 1.18 14.15 3.53 4.5 2.36 9.47 6.05 14.91 11.07 5.43 5.02 16.95 18.19 34.59 39.51l35.66 42.43c2.25 3.07 9.73 12.91 22.44 29.51s20.9 28.34 24.59 35.2c3.69 6.87 5.69 13.68 5.99 20.44 0.31 6.76-1.38 12.3-5.07 16.61-3.69 4.3-9.22 6.45-16.6 6.45-4.92 0.21-9.33-0.81-13.22-3.07-3.9-2.25-9.12-7.99-15.68-17.22l-28.9-40.27c-26.03 6.15-59.44 11.28-100.22 15.37v176.16c-0.21 12.09 1.17 21.57 4.15 28.44 2.97 6.87 7.64 11.84 13.99 14.91 6.35 3.08 17.63 5.02 33.81 5.84 16.19 0.82 29.72 0.92 40.58 0.31 18.44-0.61 31.46-3.74 39.04-9.37 7.58-5.64 12.5-14.91 14.76-27.83 0.62-3.69 0.87-12.76 0.77-27.2-0.11-14.45 2.4-24.59 7.53-30.44 5.12-5.84 11.99-8.5 20.6-7.99 8.61 0.51 15.11 4.35 19.52 11.53 4.41 7.09 5.89 19.28 4.46 36.5z m0 0" fill="#6DA3FC" p-id="2385"></path></svg>