<?xml version="1.0" standalone="no"?><!DOCTYPE svg PUBLIC "-//W3C//DTD SVG 1.1//EN" "http://www.w3.org/Graphics/SVG/1.1/DTD/svg11.dtd"><svg t="1621928173979" class="icon" viewBox="0 0 1024 1024" version="1.1" xmlns="http://www.w3.org/2000/svg" p-id="4174" xmlns:xlink="http://www.w3.org/1999/xlink" width="16" height="16"><defs><style type="text/css"></style></defs><path d="M577.51104 136.768c27.328 76.8 47.744 133.76 127.552 169.792C784.93504 342.592 1024.03904 292.48 1024.03904 604.224c0 479.552-638.912 505.728-874.944 291.008C-86.93696 680.448-34.96896 139.264 250.66304 24.96c186.816-74.752 299.52 35.008 326.848 111.808zM320.03904 384a128 128 0 1 0 0-256 128 128 0 0 0 0 256z m-112 332.8a80 80 0 1 0 0-160 80 80 0 0 0 0 160z m192 147.2a80 80 0 1 0 0-160 80 80 0 0 0 0 160z m249.6 19.2a80 80 0 1 0 0-160 80 80 0 0 0 0 160z m198.4-147.2a80 80 0 1 0 0-160 80 80 0 0 0 0 160z" fill="#efb336" p-id="4175"></path></svg>