<?xml version="1.0" standalone="no"?><!DOCTYPE svg PUBLIC "-//W3C//DTD SVG 1.1//EN" "http://www.w3.org/Graphics/SVG/1.1/DTD/svg11.dtd"><svg t="1621500008647" class="icon" viewBox="0 0 1024 1024" version="1.1" xmlns="http://www.w3.org/2000/svg" p-id="41170" xmlns:xlink="http://www.w3.org/1999/xlink" width="16" height="16"><defs><style type="text/css"></style></defs><path d="M694.272 366.592c-23.552-23.552-61.44-24.064-84.992-0.512-2.56 2.56-5.12 5.632-7.68 8.704l-82.944 120.832c-0.512 0.512-1.024 1.024-1.536 1.024-0.512 0-1.536 0-2.048-0.512L459.264 440.832c-24.576-22.016-62.976-19.968-84.992 4.608l-135.68 151.552c-10.752 11.776-9.728 30.208 2.048 40.96 11.776 10.752 30.208 9.728 40.96-2.048l135.68-151.552c1.024-1.024 2.56-1.024 3.584 0L476.16 539.648c24.576 22.016 62.976 19.968 84.992-4.608 1.536-2.048 3.584-4.096 4.608-6.144l82.944-120.832c1.024-1.024 2.56-1.536 3.584-0.512 0 0 0.512 0 0.512 0.512l71.68 72.704c11.264 11.264 29.696 11.776 40.96 0.512 11.264-11.264 11.776-29.696 0.512-40.96l-71.68-73.728z m-324.608-27.648c21.504 0 38.912-17.408 38.912-38.912S391.168 261.12 369.664 261.12s-38.912 17.408-38.912 38.912c0 21.504 17.408 38.912 38.912 38.912z" p-id="41171" fill="#74ba2b"></path><path d="M869.376 466.944v-276.48c0-31.232-25.6-56.832-56.832-56.832h-619.52c-31.232 0-56.832 25.6-56.832 56.832v646.144c0 31.232 25.6 56.832 56.832 56.832h256c15.36 0 28.672 12.288 28.672 27.648 0.512 17.408-11.264 29.184-28.672 29.184h-256c-62.464 0-113.664-51.2-113.664-113.664V190.976c0-62.464 51.2-113.664 113.664-113.664h619.008c62.464 0 113.664 51.2 113.664 113.664v276.48c0 15.36-12.288 28.16-28.16 28.672-15.36-0.512-28.16-13.312-28.16-29.184z" p-id="41172" fill="#74ba2b"></path><path d="M907.776 790.016h-354.304c-15.872 0-28.672-12.8-28.672-28.672s12.8-28.672 28.672-28.672h354.304c15.872 0 28.672 12.8 28.672 28.672 0.512 15.872-12.8 28.672-28.672 28.672z" p-id="41173" fill="#74ba2b"></path><path d="M784.896 924.16c-7.68 0-14.848-3.072-20.48-8.192-11.264-11.264-11.264-29.696 0-40.96l113.664-113.664-113.664-114.688c-11.264-11.264-11.264-29.696 0-40.96s29.696-11.264 40.96 0l133.632 135.168c11.264 11.264 11.264 29.696 0 40.96l-133.632 134.144c-5.12 5.12-12.8 8.192-20.48 8.192z" p-id="41174" fill="#74ba2b"></path></svg>