<?xml version="1.0" standalone="no"?><!DOCTYPE svg PUBLIC "-//W3C//DTD SVG 1.1//EN" "http://www.w3.org/Graphics/SVG/1.1/DTD/svg11.dtd"><svg t="1621577066209" class="icon" viewBox="0 0 1024 1024" version="1.1" xmlns="http://www.w3.org/2000/svg" p-id="66459" xmlns:xlink="http://www.w3.org/1999/xlink" width="16" height="16"><defs><style type="text/css"></style></defs><path d="M905.6 4.8h-784C57.6 4.8 6.4 56 6.4 120v784c0 64 51.2 115.2 115.2 115.2h784c64 0 115.2-51.2 115.2-115.2v-784c6.4-64-51.2-115.2-115.2-115.2z m-46.4 686.4s-68.8 105.6-177.6 163.2c-108.8 57.6-243.2 40-331.2-14.4-88-56-116.8-102.4-116.8-102.4l-75.2 43.2s-16 8-16-9.6v-272s0-24 17.6-16c16 8 182.4 102.4 233.6 131.2 28.8 12.8 3.2 24 3.2 24l-73.6 41.6s41.6 52.8 102.4 80c65.6 33.6 126.4 38.4 201.6 9.6 49.6-19.2 107.2-65.6 147.2-136l84.8 57.6z m38.4-166.4s0 24-17.6 16c-16-8-182.4-102.4-233.6-131.2-28.8-12.8-3.2-24-3.2-24l73.6-41.6s-41.6-52.8-102.4-80c-65.6-33.6-126.4-38.4-201.6-9.6-49.6 19.2-107.2 65.6-147.2 136l-83.2-56s68.8-105.6 177.6-163.2c105.6-59.2 240-41.6 328 12.8 88 56 116.8 102.4 116.8 102.4l75.2-43.2s16-8 16 9.6v272z" fill="#BC88F1" p-id="66460"></path></svg>