<?xml version="1.0" standalone="no"?><!DOCTYPE svg PUBLIC "-//W3C//DTD SVG 1.1//EN" "http://www.w3.org/Graphics/SVG/1.1/DTD/svg11.dtd"><svg t="1621928333776" class="icon" viewBox="0 0 1024 1024" version="1.1" xmlns="http://www.w3.org/2000/svg" p-id="6496" xmlns:xlink="http://www.w3.org/1999/xlink" width="16" height="16"><defs><style type="text/css"></style></defs><path d="M519.021481 264.148906l-37.94059-3.216877a137.77513 137.77513 0 0 0-9.483601-22.66661l25.400956-32.16877a36.010464 36.010464 0 0 0-3.216877-48.253155l-22.023235-23.47083a37.779746 37.779746 0 0 0-48.253155-3.216877l-32.16877 25.883488a144.697602 144.697602 0 0 0-22.184079-9.644445l-3.056033-38.905653a34.884557 34.884557 0 0 0-34.884556-32.16877h-32.168771a32.960617 32.960617 0 0 0-34.890742 32.16877l-1.447595 38.905653c-9.483601 3.216877-16.084385 6.433754-25.400956 9.644445l-32.16877-25.883488a33.282304 33.282304 0 0 0-44.374344 3.216877l-22.103656 22.691356a40.210963 40.210963 0 0 0-3.056034 48.253155l25.240112 32.16877c-3.056033 6.433754-6.27291 16.084385-9.483601 22.66661l-38.101433 3.216877a35.051587 35.051587 0 0 0-32.16877 35.688776v29.075619a32.960617 32.960617 0 0 0 32.16877 35.688776l37.94059 3.216877a186.393277 186.393277 0 0 0 9.4836 22.827454l-25.240111 32.16877a36.01665 36.01665 0 0 0 3.056033 48.253155l22.184078 22.666611a37.618902 37.618902 0 0 0 48.253156 3.216877l32.16877-25.883488c6.266724 3.216877 16.084385 6.433754 22.184078 9.805289l3.056033 38.905653a34.884557 34.884557 0 0 0 34.884557 32.16877h28.617833a32.16877 32.16877 0 0 0 34.729899-32.16877l3.216877-38.905653a179.099627 179.099627 0 0 0 22.184079-9.805289l32.16877 25.883488a33.764836 33.764836 0 0 0 47.430377-3.216877l22.184078-22.666611a39.870716 39.870716 0 0 0 3.216877-48.253155l-25.400955-32.16877c3.216877-6.594598 6.433754-16.084385 9.644444-22.827454l37.94059-3.216877a35.051587 35.051587 0 0 0 32.16877-35.534118v-28.456989a32.16877 32.16877 0 0 0-30.306693-35.68259zM310.042015 400.327971a80.384807 80.384807 0 1 1 79.265087-80.384808A79.265087 79.265087 0 0 1 310.042015 400.327971z" fill="#efb336" p-id="6497"></path><path d="M889.816046 418.825013l-26.687706-2.251813a121.338126 121.338126 0 0 0-6.749256-16.084385l17.847481-22.666611a25.240112 25.240112 0 0 0-2.251814-34.086523l-16.084385-16.084385a26.044331 26.044331 0 0 0-33.282304-2.251814l-22.184079 18.169168a85.680282 85.680282 0 0 0-16.084385-6.916285l-2.084784-27.157866a24.435893 24.435893 0 0 0-24.435892-22.827454h-20.724112a23.149142 23.149142 0 0 0-24.126577 23.149142l-2.251814 27.170238c-6.755442 2.251814-11.092039 4.664472-17.847481 6.916286l-22.184079-18.169169a22.988298 22.988298 0 0 0-31.03049 2.251814l-16.084385 16.084385a28.135301 28.135301 0 0 0-2.251814 34.086524l17.847481 22.66661c-2.251814 4.664472-4.503628 11.413727-6.755442 16.084385l-26.526863 2.251814a24.745208 24.745208 0 0 0-21.546889 24.596736v20.414797a22.988298 22.988298 0 0 0 22.184078 24.918424l26.044332 2.895189a103.849451 103.849451 0 0 0 6.594597 16.084385l-17.847481 22.66661a25.400956 25.400956 0 0 0 2.251814 34.086524l16.084385 16.084385a26.044331 26.044331 0 0 0 33.282305 2.251814l22.184078-18.169169c4.503628 2.251814 11.092039 4.664472 16.084385 6.916286l2.251814 27.170238a24.435893 24.435893 0 0 0 23.631674 21.540703h19.938451a23.149142 23.149142 0 0 0 24.435892-22.827454l2.251814-27.170238a102.909133 102.909133 0 0 0 16.084385-6.916286l22.344923 18.169169a23.631673 23.631673 0 0 0 33.282304-2.251814l16.084385-16.084385a27.65277 27.65277 0 0 0 2.251814-34.086523l-18.973388-21.386046c2.09097-4.664472 4.330411-11.413727 6.594598-16.084385l26.687707-2.251814a24.745208 24.745208 0 0 0 22.16552-25.091641V443.743438a22.66661 22.66661 0 0 0-20.414797-24.918425z m-146.615356 95.497943a56.913978 56.913978 0 1 1 55.466383-56.753134 55.627227 55.627227 0 0 1-55.466383 56.753134z" fill="#efb336" p-id="6498"></path><path d="M971.96395 837.148936H52.017548a49.490415 49.490415 0 0 1-49.682191-49.490415V49.682191A49.682191 49.682191 0 0 1 52.017548 0h919.946402a49.676005 49.676005 0 0 1 49.676004 49.676005v737.957771a49.490415 49.490415 0 0 1-49.682191 49.490415zM52.017548 38.583965A11.092039 11.092039 0 0 0 40.925509 49.676005v737.957771a11.092039 11.092039 0 0 0 11.092039 10.931195h919.946402a11.092039 11.092039 0 0 0 11.092039-10.931195V49.682191a11.092039 11.092039 0 0 0-11.092039-11.09204z" fill="#efb336" p-id="6499"></path><path d="M26.610406 677.678445H994.308872v38.583965H26.610406z" fill="#efb336" p-id="6500"></path><path d="M592.384836 831.859648h31.673865v85.692655h-31.673865z" fill="#efb336" p-id="6501"></path><path d="M392.375508 831.859648h31.673866v85.692655h-31.673866z" fill="#efb336" p-id="6502"></path><path d="M675.974147 918.832867a13.183009 13.183009 0 0 0-8.840225-3.538565h-313.645508a13.183009 13.183009 0 0 0-8.840226 3.538565 160.769615 160.769615 0 0 0-52.583566 89.082748 13.183009 13.183009 0 0 0 12.861322 16.084385h410.770448a13.183009 13.183009 0 0 0 12.861322-16.084385 160.769615 160.769615 0 0 0-52.583567-89.082748z" fill="#efb336" p-id="6503"></path></svg>