<?xml version="1.0" standalone="no"?><!DOCTYPE svg PUBLIC "-//W3C//DTD SVG 1.1//EN" "http://www.w3.org/Graphics/SVG/1.1/DTD/svg11.dtd"><svg t="1621577132142" class="icon" viewBox="0 0 1024 1024" version="1.1" xmlns="http://www.w3.org/2000/svg" p-id="67277" xmlns:xlink="http://www.w3.org/1999/xlink" width="16" height="16"><defs><style type="text/css"></style></defs><path d="M1023.98464 686.069709V450.553242h-61.439078V102.398464a40.959386 40.959386 0 0 0-40.959386-40.959386H102.398464a40.959386 40.959386 0 0 0-40.959386 40.959386v819.187712a40.959386 40.959386 0 0 0 40.959386 40.959386h409.593856v61.439078h409.593856-819.187712c-56.554672 0-102.398464-45.843792-102.398464-102.398464V102.398464C0 45.843792 45.843792 0 102.398464 0h819.187712c56.554672 0 102.398464 45.843792 102.398464 102.398464v583.671245zM245.756314 215.036774h532.472013a40.959386 40.959386 0 1 1 0 81.918772H245.756314a40.959386 40.959386 0 1 1 0-81.918772z m0 235.516468h337.914931a40.959386 40.959386 0 1 1 0 81.918771H245.756314a40.959386 40.959386 0 1 1 0-81.918771z m606.997615 236.417573v297.764494a39.249331 39.249331 0 0 1-78.508903 0V683.407349L671.160493 786.491883a39.249331 39.249331 0 1 1-55.510208-55.499968l166.530622-166.540862a39.146933 39.146933 0 0 1 29.541957-11.468628 39.146933 39.146933 0 0 1 29.531717 11.468628l166.530622 166.530622a39.249331 39.249331 0 1 1-55.499967 55.510208l-99.531307-99.531307zM245.756314 686.069709h225.276621a40.959386 40.959386 0 1 1 0 81.918771H245.756314a40.959386 40.959386 0 1 1 0-81.918771z" fill="#aa78c7" p-id="67278"></path></svg>