<?xml version="1.0" standalone="no"?><!DOCTYPE svg PUBLIC "-//W3C//DTD SVG 1.1//EN" "http://www.w3.org/Graphics/SVG/1.1/DTD/svg11.dtd"><svg t="1621499964107" class="icon" viewBox="0 0 1024 1024" version="1.1" xmlns="http://www.w3.org/2000/svg" p-id="40327" xmlns:xlink="http://www.w3.org/1999/xlink" width="16" height="16"><defs><style type="text/css"></style></defs><path d="M896.056832 896c0 8.6528-0.7424 17.1008-1.28 25.6h-51.2c0.64-8.4736 1.28-16.9472 1.28-25.6 0-183.808-148.992-332.8-332.8-332.8S179.256832 712.192 179.256832 896c0 8.6528 0.64 17.1264 1.3056 25.6H129.336832c-0.5376-8.4992-1.28-16.9472-1.28-25.6 0-170.9824 111.8208-315.6992 266.24-365.44C326.917632 490.368 281.656832 416.9728 281.656832 332.8a230.4 230.4 0 0 1 230.4-230.4 230.4 230.4 0 0 1 230.4 230.4c0 84.1728-45.2608 157.568-112.64 197.76C784.236032 580.3008 896.056832 725.0176 896.056832 896z m-204.8-563.2a179.2 179.2 0 1 0-358.4 0 179.2 179.2 0 0 0 358.4 0z" fill="#F66C62" p-id="40328"></path><path d="M256.056832 204.8c-81.6896 0-128 71.0656-128 153.6 0 82.5088 46.3104 153.6 128 153.6v53.5296C131.384832 582.912 51.256832 685.9776 51.256832 819.2c0 3.8912-0.1536 21.76 0 25.6H0.056832c-0.128-3.84 0-21.7088 0-25.6 0-130.432 66.3552-235.6736 179.2-281.6-60.4672-33.024-102.4-104.8832-102.4-179.2 0-107.904 72.3712-204.8 179.2-204.8v51.2zM768.056832 204.8c81.6896 0 128 71.0656 128 153.6 0 82.5088-46.3104 153.6-128 153.6v53.5296c124.672 17.3824 204.8 120.448 204.8 253.6704 0 3.8912 0.1536 21.76 0 25.6h51.2c0.128-3.84 0-21.7088 0-25.6 0-130.432-66.3552-235.6736-179.2-281.6 60.4672-33.024 102.4-104.8832 102.4-179.2 0-107.904-72.3712-204.8-179.2-204.8v51.2z" fill="#F66C62" p-id="40329"></path></svg>